STARTFONT 2.1
FONT big5.8c00.16
SIZE 16 72 72
FONTBOUNDINGBOX 16 16 0 -2
STARTPROPERTIES 4
FONT_DESCENT 2
FONT_ASCENT 14
DEFAULT_CHAR 55
COPYRIGHT "Copyright (c) 1992 AT&T - All rights reserved."
ENDPROPERTIES
CHARS 284
STARTCHAR ch-55
ENCODING 55
SWIDTH 1000 0
DWIDTH 16 0
BBX 16 16 0 -2
BITMAP
0420
0418
080c
1084
0140
0220
0418
1807
67f2
0410
0410
0410
07f0
0410
0000
0000
ENDCHAR
STARTCHAR ch-57
ENCODING 57
SWIDTH 1000 0
DWIDTH 16 0
BBX 16 16 0 -2
BITMAP
0010
2810
45ff
0010
1010
2810
4420
0044
7c88
4510
4420
4444
7cfe
4401
0000
0000
ENDCHAR
STARTCHAR ch-59
ENCODING 59
SWIDTH 1000 0
DWIDTH 16 0
BBX 16 16 0 -2
BITMAP
11f8
2808
4448
0048
11f8
2848
4448
0048
7df8
4448
4448
4449
7c45
4443
0000
0000
ENDCHAR
STARTCHAR ch-60
ENCODING 60
SWIDTH 1000 0
DWIDTH 16 0
BBX 16 16 0 -2
BITMAP
2424
4224
0024
00ff
1824
2424
4224
00ff
7e00
4200
4224
4242
7e81
4200
0000
0000
ENDCHAR
STARTCHAR ch-61
ENCODING 61
SWIDTH 1000 0
DWIDTH 16 0
BBX 16 16 0 -2
BITMAP
0008
1414
2222
4149
0000
143e
2204
4108
3e3e
2222
2222
2222
3e3e
2222
0000
0000
ENDCHAR
STARTCHAR ch-62
ENCODING 62
SWIDTH 1000 0
DWIDTH 16 0
BBX 16 16 0 -2
BITMAP
0010
14ff
22a5
41a5
00c7
1400
2200
417f
0008
3e08
2208
2208
3e08
22ff
0000
0000
ENDCHAR
STARTCHAR ch-63
ENCODING 63
SWIDTH 1000 0
DWIDTH 16 0
BBX 16 16 0 -2
BITMAP
0040
7f8a
0411
4440
2c84
100a
2111
3e00
0440
7fdf
0411
7fd1
1111
209f
0000
0000
ENDCHAR
STARTCHAR ch-65
ENCODING 65
SWIDTH 1000 0
DWIDTH 16 0
BBX 16 16 0 -2
BITMAP
0828
7f24
4942
3e90
0810
3e28
0824
7f43
08fe
3e44
2244
2244
3e7c
2244
0000
0000
ENDCHAR
STARTCHAR ch-66
ENCODING 66
SWIDTH 1000 0
DWIDTH 16 0
BBX 16 16 0 -2
BITMAP
01ef
2929
44a5
013b
10e8
2844
448a
0111
7c24
44c8
4412
44e4
4408
7df0
0000
0000
ENDCHAR
STARTCHAR ch-67
ENCODING 67
SWIDTH 1000 0
DWIDTH 16 0
BBX 16 16 0 -2
BITMAP
01e4
2844
448f
03f2
1122
29e2
452a
01ea
7d2a
452a
47ea
4424
7c2a
4431
0000
0000
ENDCHAR
STARTCHAR ch-69
ENCODING 69
SWIDTH 1000 0
DWIDTH 16 0
BBX 16 16 0 -2
BITMAP
2448
43ff
0128
18cf
25f1
420f
01e8
3d2f
25e8
252f
25e8
252f
3d29
266f
0000
0000
ENDCHAR
STARTCHAR ch-70
ENCODING 70
SWIDTH 1000 0
DWIDTH 16 0
BBX 16 16 0 -2
BITMAP
0004
3ffe
0000
0008
0ffc
0808
0808
0808
0ff8
0000
0410
0220
0242
7fff
0000
0000
ENDCHAR
STARTCHAR ch-71
ENCODING 71
SWIDTH 1000 0
DWIDTH 16 0
BBX 16 16 0 -2
BITMAP
0000
7f84
00fe
0010
3f10
2110
2110
3f10
0010
2210
1410
0f12
78ff
2000
0000
0000
ENDCHAR
STARTCHAR ch-72
ENCODING 72
SWIDTH 1000 0
DWIDTH 16 0
BBX 16 16 0 -2
BITMAP
1084
1084
1ffc
0000
3ffe
0000
0ff8
0808
0808
0ff8
0808
0410
0220
7fff
0000
0000
ENDCHAR
STARTCHAR ch-73
ENCODING 73
SWIDTH 1000 0
DWIDTH 16 0
BBX 16 16 0 -2
BITMAP
0110
7f90
0012
00ff
3f10
217c
2144
3f44
0044
1228
1410
0728
7844
2183
0000
0000
ENDCHAR
STARTCHAR ch-74
ENCODING 74
SWIDTH 1000 0
DWIDTH 16 0
BBX 16 16 0 -2
BITMAP
0220
1ffc
1224
1ffc
1224
1ffc
0000
3ffe
0000
0ff8
0808
0ff8
0220
7fff
0000
0000
ENDCHAR
STARTCHAR ch-75
ENCODING 75
SWIDTH 1000 0
DWIDTH 16 0
BBX 16 16 0 -2
BITMAP
0800
1fbc
2948
6630
1410
0808
17f4
6003
07f0
0410
07f0
0410
0220
1ffc
0000
0000
ENDCHAR
STARTCHAR ch-76
ENCODING 76
SWIDTH 1000 0
DWIDTH 16 0
BBX 16 16 0 -2
BITMAP
0010
7bff
0201
0482
78ee
48aa
492a
792a
02ae
484a
3048
7889
0109
0207
0000
0000
ENDCHAR
STARTCHAR ch-77
ENCODING 77
SWIDTH 1000 0
DWIDTH 16 0
BBX 16 16 0 -2
BITMAP
0040
7cfe
0192
00fe
7c92
44fe
4440
7c88
0108
4408
45ff
2808
7c08
0008
0000
0000
ENDCHAR
STARTCHAR ch-78
ENCODING 78
SWIDTH 1000 0
DWIDTH 16 0
BBX 16 16 0 -2
BITMAP
7f00
447f
7f22
4114
7f08
4414
7f22
3ffe
0000
0ff8
0808
0ff8
0410
7fff
0000
0000
ENDCHAR
STARTCHAR ch-79
ENCODING 79
SWIDTH 1000 0
DWIDTH 16 0
BBX 16 16 0 -2
BITMAP
0044
7c28
01ff
0028
7cfe
442a
45ff
7c2a
00fe
4428
2828
10ac
7d2a
0028
0000
0000
ENDCHAR
STARTCHAR ch-80
ENCODING 80
SWIDTH 1000 0
DWIDTH 16 0
BBX 16 16 0 -2
BITMAP
0490
5ffd
4491
5ffd
4491
5ffd
7fff
0000
7fff
0ff8
0808
0ff8
0410
7fff
0000
0000
ENDCHAR
STARTCHAR ch-84
ENCODING 84
SWIDTH 1000 0
DWIDTH 16 0
BBX 16 16 0 -2
BITMAP
1a08
7f88
5abe
7f88
5a88
7fff
7f90
0022
7fff
3f7e
215a
3f5a
125a
7fff
0000
0000
ENDCHAR
STARTCHAR ch-85
ENCODING 85
SWIDTH 1000 0
DWIDTH 16 0
BBX 16 16 0 -2
BITMAP
0002
7fff
0304
048c
08d0
3160
0260
0450
18d0
0148
0247
1c42
0140
0080
0000
0000
ENDCHAR
STARTCHAR ch-86
ENCODING 86
SWIDTH 1000 0
DWIDTH 16 0
BBX 16 16 0 -2
BITMAP
0002
7fff
0300
0480
78c8
0170
0a40
0460
3ad0
0148
02c4
0443
3940
0080
0000
0000
ENDCHAR
STARTCHAR ch-87
ENCODING 87
SWIDTH 1000 0
DWIDTH 16 0
BBX 16 16 0 -2
BITMAP
01ff
7e10
2439
244a
259c
2428
2448
249c
242a
24c9
2408
2431
2401
43ff
0000
0000
ENDCHAR
STARTCHAR ch-90
ENCODING 90
SWIDTH 1000 0
DWIDTH 16 0
BBX 16 16 0 -2
BITMAP
1e02
13ff
1242
1ea6
1338
1250
1298
1f38
1254
1294
1313
2212
2a50
4420
0000
0000
ENDCHAR
STARTCHAR ch-92
ENCODING 92
SWIDTH 1000 0
DWIDTH 16 0
BBX 16 16 0 -2
BITMAP
7e00
08ff
0824
1024
3224
4c24
18ff
2c24
4a24
1924
2824
4824
0844
3004
0000
0000
ENDCHAR
STARTCHAR ch-93
ENCODING 93
SWIDTH 1000 0
DWIDTH 16 0
BBX 16 16 0 -2
BITMAP
7e02
04ff
0892
1092
3292
4c92
1892
28fe
4c80
1a80
2980
4881
0881
30ff
0000
0000
ENDCHAR
STARTCHAR ch-95
ENCODING 95
SWIDTH 1000 0
DWIDTH 16 0
BBX 16 16 0 -2
BITMAP
0001
7efe
1080
20ff
5281
0cff
1880
6cbe
0a82
1884
6888
0890
0921
323f
0000
0000
ENDCHAR
STARTCHAR ch-97
ENCODING 97
SWIDTH 1000 0
DWIDTH 16 0
BBX 16 16 0 -2
BITMAP
0400
07f0
0820
1ffc
7084
1ffc
0308
0c90
3160
0660
19d0
0e4f
3142
0080
0000
0000
ENDCHAR
STARTCHAR ch-98
ENCODING 98
SWIDTH 1000 0
DWIDTH 16 0
BBX 16 16 0 -2
BITMAP
02a0
3ffe
0100
7fff
0220
07f0
0908
128f
6d52
0260
0cd0
314c
0644
0180
0000
0000
ENDCHAR
STARTCHAR ch-100
ENCODING 100
SWIDTH 1000 0
DWIDTH 16 0
BBX 16 16 0 -2
BITMAP
7e7e
1042
2042
527e
0c42
1842
287e
4c40
0a41
1852
2854
4848
0864
30c3
0000
0000
ENDCHAR
STARTCHAR ch-101
ENCODING 101
SWIDTH 1000 0
DWIDTH 16 0
BBX 16 16 0 -2
BITMAP
0020
7e10
11ff
2020
5244
0c88
19f2
2824
4c48
1a90
2930
4848
0884
3103
0000
0000
ENDCHAR
STARTCHAR ch-102
ENCODING 102
SWIDTH 1000 0
DWIDTH 16 0
BBX 16 16 0 -2
BITMAP
0080
00f8
3fff
2081
27fa
20f0
2000
2ffe
2104
23f8
24b0
2158
4296
0160
0000
0000
ENDCHAR
STARTCHAR ch-104
ENCODING 104
SWIDTH 1000 0
DWIDTH 16 0
BBX 16 16 0 -2
BITMAP
7e24
1018
2018
5224
0c42
1810
68ff
0c48
0aff
1949
6849
084b
0808
3008
0000
0000
ENDCHAR
STARTCHAR ch-105
ENCODING 105
SWIDTH 1000 0
DWIDTH 16 0
BBX 16 16 0 -2
BITMAP
7e7e
1010
2020
5050
0909
1616
2424
4e4e
1515
2424
0404
0404
2828
1010
0000
0000
ENDCHAR
STARTCHAR ch-106
ENCODING 106
SWIDTH 1000 0
DWIDTH 16 0
BBX 16 16 0 -2
BITMAP
0080
1ffc
07f0
0410
07f0
3fff
4ff1
0104
0688
1970
06d0
194e
0340
0080
0000
0000
ENDCHAR
STARTCHAR ch-107
ENCODING 107
SWIDTH 1000 0
DWIDTH 16 0
BBX 16 16 0 -2
BITMAP
3e3c
0248
0490
15fe
0892
7fa2
0afe
08a2
0954
0898
0b34
0853
2992
1030
0000
0000
ENDCHAR
STARTCHAR ch-108
ENCODING 108
SWIDTH 1000 0
DWIDTH 16 0
BBX 16 16 0 -2
BITMAP
0010
7f10
08ff
1812
6414
0dff
1610
6560
0cfe
1542
647e
0442
147e
0842
0000
0000
ENDCHAR
STARTCHAR ch-109
ENCODING 109
SWIDTH 1000 0
DWIDTH 16 0
BBX 16 16 0 -2
BITMAP
7def
1121
3121
4921
1bee
2d00
4b0f
19e1
2909
490a
09e4
090a
2911
1111
0000
0000
ENDCHAR
STARTCHAR ch-111
ENCODING 111
SWIDTH 1000 0
DWIDTH 16 0
BBX 16 16 0 -2
BITMAP
7e01
09fe
1092
6911
0620
0c44
16f8
2524
4cfe
0d10
15ff
6428
0844
3082
0000
0000
ENDCHAR
STARTCHAR ch-112
ENCODING 112
SWIDTH 1000 0
DWIDTH 16 0
BBX 16 16 0 -2
BITMAP
0400
3f9c
0414
1f14
7fd5
5f67
0000
3f9f
0c11
1691
2b0a
1704
0a8a
1611
0000
0000
ENDCHAR
STARTCHAR ch-113
ENCODING 113
SWIDTH 1000 0
DWIDTH 16 0
BBX 16 16 0 -2
BITMAP
7e7c
0854
1054
6a6c
0e44
147c
2600
4dfe
0caa
14aa
64aa
04aa
08aa
33ff
0000
0000
ENDCHAR
STARTCHAR ch-114
ENCODING 114
SWIDTH 1000 0
DWIDTH 16 0
BBX 16 16 0 -2
BITMAP
7eff
0888
10be
6aa2
0ebe
14a2
26be
4daa
0c88
149c
64aa
0549
0808
3018
0000
0000
ENDCHAR
STARTCHAR ch-115
ENCODING 115
SWIDTH 1000 0
DWIDTH 16 0
BBX 16 16 0 -2
BITMAP
4081
5ebd
4891
50a1
68d3
458d
56a9
64cd
4e9b
55a9
64c9
4c99
7fff
4001
0000
0000
ENDCHAR
STARTCHAR ch-117
ENCODING 117
SWIDTH 1000 0
DWIDTH 16 0
BBX 16 16 0 -2
BITMAP
00a2
7f22
0a22
10d5
3908
4b00
1d08
2908
4d4f
1b48
2948
4948
09a8
191f
0000
0000
ENDCHAR
STARTCHAR ch-118
ENCODING 118
SWIDTH 1000 0
DWIDTH 16 0
BBX 16 16 0 -2
BITMAP
0010
7fff
1054
39ff
4844
1cfe
2882
4cfe
0a82
18fe
2882
48fe
0844
1882
0000
0000
ENDCHAR
STARTCHAR ch-119
ENCODING 119
SWIDTH 1000 0
DWIDTH 16 0
BBX 16 16 0 -2
BITMAP
0010
7efe
0810
10fe
29ff
4b01
1d7d
2800
4c7c
0a44
187c
2844
4828
19ff
0000
0000
ENDCHAR
STARTCHAR ch-120
ENCODING 120
SWIDTH 1000 0
DWIDTH 16 0
BBX 16 16 0 -2
BITMAP
1f84
0106
0898
0460
0380
3c40
0090
0328
1c48
0088
0308
1c08
0090
0060
0000
0000
ENDCHAR
STARTCHAR ch-121
ENCODING 121
SWIDTH 1000 0
DWIDTH 16 0
BBX 16 16 0 -2
BITMAP
0820
1120
6a22
247f
1882
1502
6622
0a12
1212
6602
0a02
3202
1414
0808
0000
0000
ENDCHAR
STARTCHAR ch-122
ENCODING 122
SWIDTH 1000 0
DWIDTH 16 0
BBX 16 16 0 -2
BITMAP
0404
0904
7504
1604
1cff
730c
050c
0914
3324
0544
0984
7104
0a14
0408
0000
0000
ENDCHAR
STARTCHAR ch-123
ENCODING 123
SWIDTH 1000 0
DWIDTH 16 0
BBX 16 16 0 -2
BITMAP
0204
7cfe
1010
4a10
2410
1812
25ff
4a10
1210
6610
0a10
7210
0a10
0410
0000
0000
ENDCHAR
STARTCHAR ch-125
ENCODING 125
SWIDTH 1000 0
DWIDTH 16 0
BBX 16 16 0 -2
BITMAP
7c10
0010
1210
4dff
2911
1911
2529
4d45
1545
2d01
1501
2501
0505
1902
0000
0000
ENDCHAR
STARTCHAR ch-128
ENCODING 128
SWIDTH 1000 0
DWIDTH 16 0
BBX 16 16 0 -2
BITMAP
0010
7c10
1292
4c92
2892
10fe
2892
4c10
1511
2511
0d11
3511
05ff
3901
0000
0000
ENDCHAR
STARTCHAR ch-129
ENCODING 129
SWIDTH 1000 0
DWIDTH 16 0
BBX 16 16 0 -2
BITMAP
7c00
0020
1210
4dff
2901
1001
2800
4c48
1248
2648
4a48
1248
6284
0d03
0000
0000
ENDCHAR
STARTCHAR ch-130
ENCODING 130
SWIDTH 1000 0
DWIDTH 16 0
BBX 16 16 0 -2
BITMAP
0802
1aff
6622
1422
0822
182a
6444
0a80
127e
6642
1a42
6242
0a7e
0442
0000
0000
ENDCHAR
STARTCHAR ch-132
ENCODING 132
SWIDTH 1000 0
DWIDTH 16 0
BBX 16 16 0 -2
BITMAP
7810
2010
12fe
4c12
29ff
1812
24fe
4a10
12fe
6610
0bff
7210
0410
1810
0000
0000
ENDCHAR
STARTCHAR ch-133
ENCODING 133
SWIDTH 1000 0
DWIDTH 16 0
BBX 16 16 0 -2
BITMAP
0848
1a48
6648
1488
08ff
1988
669c
0a9a
12aa
66a9
0ac9
3288
1488
0888
0000
0000
ENDCHAR
STARTCHAR ch-134
ENCODING 134
SWIDTH 1000 0
DWIDTH 16 0
BBX 16 16 0 -2
BITMAP
7800
12ff
4c00
287e
1842
2442
4a42
127e
6642
0a42
727e
0242
0400
18ff
0000
0000
ENDCHAR
STARTCHAR ch-137
ENCODING 137
SWIDTH 1000 0
DWIDTH 16 0
BBX 16 16 0 -2
BITMAP
0820
123e
2a42
44c4
2928
1410
2628
4a44
1383
267c
4a44
1244
0a7c
0444
0000
0000
ENDCHAR
STARTCHAR ch-138
ENCODING 138
SWIDTH 1000 0
DWIDTH 16 0
BBX 16 16 0 -2
BITMAP
09ff
1a20
6620
1442
08ff
1882
6482
0a82
12fe
6682
1282
6282
0afe
0482
0000
0000
ENDCHAR
STARTCHAR ch-140
ENCODING 140
SWIDTH 1000 0
DWIDTH 16 0
BBX 16 16 0 -2
BITMAP
0a20
1aff
6a82
2482
1cfe
1282
6682
0afe
32aa
0a28
3248
0249
1489
0907
0000
0000
ENDCHAR
STARTCHAR ch-141
ENCODING 141
SWIDTH 1000 0
DWIDTH 16 0
BBX 16 16 0 -2
BITMAP
0402
78ff
2a92
1492
0cfe
7492
0692
0afe
7210
0610
0afe
7210
0410
19ff
0000
0000
ENDCHAR
STARTCHAR ch-143
ENCODING 143
SWIDTH 1000 0
DWIDTH 16 0
BBX 16 16 0 -2
BITMAP
0c40
70fe
1192
4cfe
2892
10fe
2820
4c48
1688
6afe
1208
6208
0408
1808
0000
0000
ENDCHAR
STARTCHAR ch-144
ENCODING 144
SWIDTH 1000 0
DWIDTH 16 0
BBX 16 16 0 -2
BITMAP
0838
1144
2a82
657d
1800
14e2
66aa
0aaa
32ea
06aa
0aaa
32e2
04a2
18a6
0000
0000
ENDCHAR
STARTCHAR ch-145
ENCODING 145
SWIDTH 1000 0
DWIDTH 16 0
BBX 16 16 0 -2
BITMAP
0800
11ef
2aa1
64a9
18e6
1482
6280
06e7
1a81
0689
3ae9
0286
0486
3899
0000
0000
ENDCHAR
STARTCHAR ch-146
ENCODING 146
SWIDTH 1000 0
DWIDTH 16 0
BBX 16 16 0 -2
BITMAP
0810
1192
2a92
64fe
1800
14fe
6610
0a20
72ff
06a9
0aa9
72a9
04a9
1887
0000
0000
ENDCHAR
STARTCHAR ch-147
ENCODING 147
SWIDTH 1000 0
DWIDTH 16 0
BBX 16 16 0 -2
BITMAP
0844
1044
6bff
2444
1844
65ff
0d11
1511
65ff
0d11
3511
0511
25ff
1901
0000
0000
ENDCHAR
STARTCHAR ch-148
ENCODING 148
SWIDTH 1000 0
DWIDTH 16 0
BBX 16 16 0 -2
BITMAP
0810
1022
2aff
54aa
0892
18aa
6482
0afe
7688
0aee
1288
6289
0ae9
0487
0000
0000
ENDCHAR
STARTCHAR ch-149
ENCODING 149
SWIDTH 1000 0
DWIDTH 16 0
BBX 16 16 0 -2
BITMAP
0401
79fe
5410
2911
10b2
2840
4884
18f8
2811
49ff
1810
29ff
4844
1882
0000
0000
ENDCHAR
STARTCHAR ch-151
ENCODING 151
SWIDTH 1000 0
DWIDTH 16 0
BBX 16 16 0 -2
BITMAP
0410
08fe
7092
15ff
4892
30fe
28fe
4892
18fe
2854
59ff
2828
4810
31ef
0000
0000
ENDCHAR
STARTCHAR ch-152
ENCODING 152
SWIDTH 1000 0
DWIDTH 16 0
BBX 16 16 0 -2
BITMAP
0844
1bff
6644
14fe
0882
18fe
6482
0afe
1210
6610
0bff
6244
0a83
0502
0000
0000
ENDCHAR
STARTCHAR ch-153
ENCODING 153
SWIDTH 1000 0
DWIDTH 16 0
BBX 16 16 0 -2
BITMAP
1000
11ff
2a80
64be
18a2
18be
6480
0a80
0af7
76d5
0ad5
72f7
0480
18ff
0000
0000
ENDCHAR
STARTCHAR ch-154
ENCODING 154
SWIDTH 1000 0
DWIDTH 16 0
BBX 16 16 0 -2
BITMAP
0800
11ef
6929
25ef
1800
10fe
6892
18fe
2892
48fe
1810
29ff
4810
1810
0000
0000
ENDCHAR
STARTCHAR ch-156
ENCODING 156
SWIDTH 1000 0
DWIDTH 16 0
BBX 16 16 0 -2
BITMAP
05ef
7929
05ef
29ef
5129
29ef
4884
18fe
29bc
488e
1884
28fe
0838
19ef
0000
0000
ENDCHAR
STARTCHAR ch-157
ENCODING 157
SWIDTH 1000 0
DWIDTH 16 0
BBX 16 16 0 -2
BITMAP
0004
1ffe
1004
1004
1ffc
1004
1004
1ffc
1004
1004
1ffc
0408
0806
7003
0000
0000
ENDCHAR
STARTCHAR ch-158
ENCODING 158
SWIDTH 1000 0
DWIDTH 16 0
BBX 16 16 0 -2
BITMAP
0080
00fc
0080
0ffc
0804
0804
0ffc
0804
0ffc
0804
0804
0ffc
0618
3806
0000
0000
ENDCHAR
STARTCHAR ch-160
ENCODING 160
SWIDTH 1000 0
DWIDTH 16 0
BBX 16 16 0 -2
BITMAP
0800
1ff8
2020
4044
1ffe
1004
1ffc
1004
1004
1ffc
1004
1ffc
180c
6003
0000
0000
ENDCHAR
STARTCHAR ch-161
ENCODING 161
SWIDTH 1000 0
DWIDTH 16 0
BBX 16 16 0 -2
BITMAP
0004
3f04
2204
22ff
3e04
220c
2214
3e24
2244
2284
3e04
1404
2214
4108
0000
0000
ENDCHAR
STARTCHAR ch-162
ENCODING 162
SWIDTH 1000 0
DWIDTH 16 0
BBX 16 16 0 -2
BITMAP
1ffc
0080
0080
7fff
0000
0ff8
0808
0ff8
0808
0ff8
0808
0ff8
0808
3006
0000
0000
ENDCHAR
STARTCHAR ch-163
ENCODING 163
SWIDTH 1000 0
DWIDTH 16 0
BBX 16 16 0 -2
BITMAP
0108
7ffe
0040
0021
001f
3ff8
2008
3ff8
2008
3ff8
2008
3ff8
2008
4004
0000
0000
ENDCHAR
STARTCHAR ch-164
ENCODING 164
SWIDTH 1000 0
DWIDTH 16 0
BBX 16 16 0 -2
BITMAP
0008
7c88
4488
4488
7dff
4489
4489
7c8a
4488
4488
7c80
2881
4481
447f
0000
0000
ENDCHAR
STARTCHAR ch-165
ENCODING 165
SWIDTH 1000 0
DWIDTH 16 0
BBX 16 16 0 -2
BITMAP
0020
7c12
45ff
4400
7c00
447c
4444
7c44
4444
4444
4444
7c45
2885
4507
0000
0000
ENDCHAR
STARTCHAR ch-167
ENCODING 167
SWIDTH 1000 0
DWIDTH 16 0
BBX 16 16 0 -2
BITMAP
07f0
0808
17f4
2212
4211
0460
1ffc
1004
1ffc
1004
1ffc
1004
1ffc
2002
0000
0000
ENDCHAR
STARTCHAR ch-168
ENCODING 168
SWIDTH 1000 0
DWIDTH 16 0
BBX 16 16 0 -2
BITMAP
0480
78fc
0881
08ff
0000
1ffc
1004
1ffc
1004
1ffc
1004
1ffc
0410
380e
0000
0000
ENDCHAR
STARTCHAR ch-169
ENCODING 169
SWIDTH 1000 0
DWIDTH 16 0
BBX 16 16 0 -2
BITMAP
7dfe
4480
4480
7cbe
44a2
44a2
7ca2
44a2
44a2
4494
7c88
1114
2822
44c1
0000
0000
ENDCHAR
STARTCHAR ch-170
ENCODING 170
SWIDTH 1000 0
DWIDTH 16 0
BBX 16 16 0 -2
BITMAP
03e0
0410
09c8
1004
27f2
4041
0ff8
0808
0ff8
0ff8
0808
0ff8
0410
380e
0000
0000
ENDCHAR
STARTCHAR ch-171
ENCODING 171
SWIDTH 1000 0
DWIDTH 16 0
BBX 16 16 0 -2
BITMAP
1ffc
1084
7fff
1084
1ffe
0000
1ffc
1004
1ffc
1ffc
1004
1ffc
0410
380e
0000
0000
ENDCHAR
STARTCHAR ch-172
ENCODING 172
SWIDTH 1000 0
DWIDTH 16 0
BBX 16 16 0 -2
BITMAP
0080
3ffe
0080
3ffe
0080
7fff
1ffc
1004
1ffc
1ff4
1004
1ffc
1004
2002
0000
0000
ENDCHAR
STARTCHAR ch-175
ENCODING 175
SWIDTH 1000 0
DWIDTH 16 0
BBX 16 16 0 -2
BITMAP
0020
7c10
45ff
4501
7d01
44fe
4410
7c10
4410
4410
7c10
1010
2850
4420
0000
0000
ENDCHAR
STARTCHAR ch-176
ENCODING 176
SWIDTH 1000 0
DWIDTH 16 0
BBX 16 16 0 -2
BITMAP
1110
7ffe
1110
11f0
1ffc
1ff8
1008
1ff8
1008
1ff8
1008
1ff8
0810
300c
0000
0000
ENDCHAR
STARTCHAR ch-178
ENCODING 178
SWIDTH 1000 0
DWIDTH 16 0
BBX 16 16 0 -2
BITMAP
0420
27be
2421
7fbf
0000
1ffc
1004
1ffc
1004
1ffc
1004
1ffc
0410
380e
0000
0000
ENDCHAR
STARTCHAR ch-179
ENCODING 179
SWIDTH 1000 0
DWIDTH 16 0
BBX 16 16 0 -2
BITMAP
0014
0012
7fff
0010
3fd0
7ff0
0010
3fd0
2050
3fd0
3fd1
2049
3fc5
4023
0000
0000
ENDCHAR
STARTCHAR ch-180
ENCODING 180
SWIDTH 1000 0
DWIDTH 16 0
BBX 16 16 0 -2
BITMAP
0080
1ffc
1084
1ffc
0080
7fff
1ffc
1004
1ffc
1ffc
1004
1ffc
1004
2002
0000
0000
ENDCHAR
STARTCHAR ch-181
ENCODING 181
SWIDTH 1000 0
DWIDTH 16 0
BBX 16 16 0 -2
BITMAP
0100
0210
0ff8
0204
7fff
1ffc
280a
4ff9
0808
0ff8
0808
0ff8
0410
180c
0000
0000
ENDCHAR
STARTCHAR ch-182
ENCODING 182
SWIDTH 1000 0
DWIDTH 16 0
BBX 16 16 0 -2
BITMAP
0004
3e0e
22f0
2220
3e10
22fe
2202
3e04
2208
2210
3e20
1440
22a0
411f
0000
0000
ENDCHAR
STARTCHAR ch-183
ENCODING 183
SWIDTH 1000 0
DWIDTH 16 0
BBX 16 16 0 -2
BITMAP
3ffe
2222
3ffe
0000
1ffc
1004
1ffc
1004
1ffc
1004
1ffc
0410
0808
3006
0000
0000
ENDCHAR
STARTCHAR ch-184
ENCODING 184
SWIDTH 1000 0
DWIDTH 16 0
BBX 16 16 0 -2
BITMAP
0428
0824
77ff
1010
100f
0ffc
0804
0ffc
0804
0ffc
0804
0ffc
0210
1c0e
0000
0000
ENDCHAR
STARTCHAR ch-185
ENCODING 185
SWIDTH 1000 0
DWIDTH 16 0
BBX 16 16 0 -2
BITMAP
0090
7c90
4490
44fe
7c90
4510
4410
7c10
44fe
4410
7c10
0010
2810
45ff
0000
0000
ENDCHAR
STARTCHAR ch-186
ENCODING 186
SWIDTH 1000 0
DWIDTH 16 0
BBX 16 16 0 -2
BITMAP
0004
3efe
2284
2284
3e84
2284
3efc
2248
2248
3e48
1449
1249
2089
4307
0000
0000
ENDCHAR
STARTCHAR ch-187
ENCODING 187
SWIDTH 1000 0
DWIDTH 16 0
BBX 16 16 0 -2
BITMAP
0220
3ffc
0224
3ffc
2220
3fff
0221
0ffa
0808
0fc8
09f8
0808
0ff8
1004
0000
0000
ENDCHAR
STARTCHAR ch-188
ENCODING 188
SWIDTH 1000 0
DWIDTH 16 0
BBX 16 16 0 -2
BITMAP
0220
3f20
2222
223f
3e20
2220
2224
3efe
2284
2284
3e84
1484
22fc
4284
0000
0000
ENDCHAR
STARTCHAR ch-189
ENCODING 189
SWIDTH 1000 0
DWIDTH 16 0
BBX 16 16 0 -2
BITMAP
0210
3f10
2220
2242
3e81
23ff
2201
3e02
22ff
2282
3e82
1482
22fe
4082
0000
0000
ENDCHAR
STARTCHAR ch-190
ENCODING 190
SWIDTH 1000 0
DWIDTH 16 0
BBX 16 16 0 -2
BITMAP
01fe
7c80
4488
4488
7c88
44ff
4488
7c88
4488
4488
7ca8
00c8
2885
457b
0000
0000
ENDCHAR
STARTCHAR ch-191
ENCODING 191
SWIDTH 1000 0
DWIDTH 16 0
BBX 16 16 0 -2
BITMAP
7e7e
2022
2242
7d9c
0000
1ffc
1004
1ffc
1004
1ffc
1004
1ffc
0410
380e
0000
0000
ENDCHAR
STARTCHAR ch-192
ENCODING 192
SWIDTH 1000 0
DWIDTH 16 0
BBX 16 16 0 -2
BITMAP
0800
7fbf
0922
1122
153e
2200
4ff8
0808
0fe8
0bf8
0808
0ff8
0618
1804
0000
0000
ENDCHAR
STARTCHAR ch-193
ENCODING 193
SWIDTH 1000 0
DWIDTH 16 0
BBX 16 16 0 -2
BITMAP
0080
0ff8
0490
7fff
0410
0ff8
0808
0ff8
0808
0ff8
0808
0ff8
0808
1004
0000
0000
ENDCHAR
STARTCHAR ch-194
ENCODING 194
SWIDTH 1000 0
DWIDTH 16 0
BBX 16 16 0 -2
BITMAP
3e20
2224
227e
3ec4
2328
2238
3e44
2383
2200
3e7c
1444
1244
217c
4144
0000
0000
ENDCHAR
STARTCHAR ch-195
ENCODING 195
SWIDTH 1000 0
DWIDTH 16 0
BBX 16 16 0 -2
BITMAP
181e
73e0
1020
17ff
1020
13fc
1ffc
1004
1ffc
1ffc
1004
1ffc
0410
180c
0000
0000
ENDCHAR
STARTCHAR ch-196
ENCODING 196
SWIDTH 1000 0
DWIDTH 16 0
BBX 16 16 0 -2
BITMAP
3e10
2210
23ff
3e20
223e
2242
3ec2
237e
2242
3e42
147e
1242
224a
4044
0000
0000
ENDCHAR
STARTCHAR ch-197
ENCODING 197
SWIDTH 1000 0
DWIDTH 16 0
BBX 16 16 0 -2
BITMAP
3e20
2210
2202
3fff
2220
2244
3ef8
2222
2244
3e88
1414
1222
2241
4081
0000
0000
ENDCHAR
STARTCHAR ch-199
ENCODING 199
SWIDTH 1000 0
DWIDTH 16 0
BBX 16 16 0 -2
BITMAP
0040
1e7f
0089
3e14
0022
0ff8
0808
0ff8
0808
0ff8
0808
0ff8
1004
2002
0000
0000
ENDCHAR
STARTCHAR ch-200
ENCODING 200
SWIDTH 1000 0
DWIDTH 16 0
BBX 16 16 0 -2
BITMAP
7fff
0220
3ffe
2222
3ffe
1ffc
1004
1ffc
1004
1ffc
1004
1ffc
0410
180c
0000
0000
ENDCHAR
STARTCHAR ch-202
ENCODING 202
SWIDTH 1000 0
DWIDTH 16 0
BBX 16 16 0 -2
BITMAP
000a
3e09
2208
23ff
3e48
2248
3fe8
224a
224a
3e8c
1489
1299
2125
4203
0000
0000
ENDCHAR
STARTCHAR ch-204
ENCODING 204
SWIDTH 1000 0
DWIDTH 16 0
BBX 16 16 0 -2
BITMAP
0080
7fff
0440
0f90
0120
3e50
018e
1ffc
1124
1244
1484
1ffc
0808
3006
0000
0000
ENDCHAR
STARTCHAR ch-207
ENCODING 207
SWIDTH 1000 0
DWIDTH 16 0
BBX 16 16 0 -2
BITMAP
7e7e
4242
4242
7e7e
4242
4242
7e7e
4242
4242
7e7e
0000
1424
2242
4181
0000
0000
ENDCHAR
STARTCHAR ch-209
ENCODING 209
SWIDTH 1000 0
DWIDTH 16 0
BBX 16 16 0 -2
BITMAP
2002
3eff
2280
22fe
3e80
22ff
3ea8
22aa
22ac
3ea4
14a2
132a
2131
4220
0000
0000
ENDCHAR
STARTCHAR ch-210
ENCODING 210
SWIDTH 1000 0
DWIDTH 16 0
BBX 16 16 0 -2
BITMAP
3e10
2228
2244
3e83
237c
2200
3e02
23ff
2210
3e54
14d3
1311
2210
4010
0000
0000
ENDCHAR
STARTCHAR ch-211
ENCODING 211
SWIDTH 1000 0
DWIDTH 16 0
BBX 16 16 0 -2
BITMAP
0080
7fff
4001
4ff9
04a0
08c0
7ff8
0808
0ff8
0808
0ff8
0808
0ff8
1004
0000
0000
ENDCHAR
STARTCHAR ch-213
ENCODING 213
SWIDTH 1000 0
DWIDTH 16 0
BBX 16 16 0 -2
BITMAP
0010
3e14
2212
23ff
3e92
2254
3e58
2218
2234
3e54
0992
1411
2250
4120
0000
0000
ENDCHAR
STARTCHAR ch-215
ENCODING 215
SWIDTH 1000 0
DWIDTH 16 0
BBX 16 16 0 -2
BITMAP
0010
7c10
44fe
4492
7c92
44fe
4410
7dff
4511
4511
7dff
2810
4410
0010
0000
0000
ENDCHAR
STARTCHAR ch-217
ENCODING 217
SWIDTH 1000 0
DWIDTH 16 0
BBX 16 16 0 -2
BITMAP
01ff
7d11
4511
457d
7d11
457d
4501
7d7d
4545
4545
7d7d
2945
2501
4703
0000
0000
ENDCHAR
STARTCHAR ch-218
ENCODING 218
SWIDTH 1000 0
DWIDTH 16 0
BBX 16 16 0 -2
BITMAP
0080
3ffe
0888
15d4
02a0
0490
380e
0ff8
0808
0ff8
0ff8
0808
0ff8
180c
0000
0000
ENDCHAR
STARTCHAR ch-220
ENCODING 220
SWIDTH 1000 0
DWIDTH 16 0
BBX 16 16 0 -2
BITMAP
3efe
2284
3efc
2284
22fc
3e40
22fe
232a
224a
3e92
1522
2242
4094
0008
0000
0000
ENDCHAR
STARTCHAR ch-221
ENCODING 221
SWIDTH 1000 0
DWIDTH 16 0
BBX 16 16 0 -2
BITMAP
01ff
7d29
4529
4448
7c86
4400
4410
7dff
4410
4438
7c54
2993
2410
4610
0000
0000
ENDCHAR
STARTCHAR ch-222
ENCODING 222
SWIDTH 1000 0
DWIDTH 16 0
BBX 16 16 0 -2
BITMAP
0490
02a0
7fff
47f1
4412
07f0
0ff8
0808
0fc8
09f8
0808
0ff8
0410
0808
0000
0000
ENDCHAR
STARTCHAR ch-223
ENCODING 223
SWIDTH 1000 0
DWIDTH 16 0
BBX 16 16 0 -2
BITMAP
0028
7c28
44fe
44aa
7caa
44aa
44fe
7caa
44aa
44aa
7dff
2844
2482
4701
0000
0000
ENDCHAR
STARTCHAR ch-224
ENCODING 224
SWIDTH 1000 0
DWIDTH 16 0
BBX 16 16 0 -2
BITMAP
0020
3e10
22fe
2244
3e24
2228
23ff
3e00
22fe
2282
3e82
1482
22fe
4082
0000
0000
ENDCHAR
STARTCHAR ch-225
ENCODING 225
SWIDTH 1000 0
DWIDTH 16 0
BBX 16 16 0 -2
BITMAP
0040
3fff
2040
2ffe
3fff
2042
2ffe
2110
23f8
260c
3beb
23e8
43f8
0404
0000
0000
ENDCHAR
STARTCHAR ch-226
ENCODING 226
SWIDTH 1000 0
DWIDTH 16 0
BBX 16 16 0 -2
BITMAP
3fbf
2401
3fa2
2094
3f88
2414
3fa3
0ffc
0804
0fe4
09fc
0ffc
0408
0804
0000
0000
ENDCHAR
STARTCHAR ch-227
ENCODING 227
SWIDTH 1000 0
DWIDTH 16 0
BBX 16 16 0 -2
BITMAP
0080
3ffe
0080
1ffc
7fff
4411
7fff
1ffc
1004
1ffc
1ffc
1004
1ffc
6003
0000
0000
ENDCHAR
STARTCHAR ch-228
ENCODING 228
SWIDTH 1000 0
DWIDTH 16 0
BBX 16 16 0 -2
BITMAP
0484
7e82
45ff
4490
7ca0
4444
44bc
7c42
45ff
4448
7c50
0021
2851
458f
0000
0000
ENDCHAR
STARTCHAR ch-229
ENCODING 229
SWIDTH 1000 0
DWIDTH 16 0
BBX 16 16 0 -2
BITMAP
0010
7dff
4444
4444
7cc6
4529
4410
7c10
45ff
4410
7c10
2810
2410
4610
0000
0000
ENDCHAR
STARTCHAR ch-230
ENCODING 230
SWIDTH 1000 0
DWIDTH 16 0
BBX 16 16 0 -2
BITMAP
0204
3f04
22f6
2205
3e04
23ff
2224
3ebc
22a4
22a4
3ebc
17e5
2203
4101
0000
0000
ENDCHAR
STARTCHAR ch-231
ENCODING 231
SWIDTH 1000 0
DWIDTH 16 0
BBX 16 16 0 -2
BITMAP
0010
3e12
2256
2258
3e90
2226
22d2
3e10
2254
2298
3e28
1424
2247
4382
0000
0000
ENDCHAR
STARTCHAR ch-232
ENCODING 232
SWIDTH 1000 0
DWIDTH 16 0
BBX 16 16 0 -2
BITMAP
0080
3ffe
27f2
2002
0ff8
02a0
0490
0ff8
0808
0ff8
0ff8
0808
0ff8
3006
0000
0000
ENDCHAR
STARTCHAR ch-234
ENCODING 234
SWIDTH 1000 0
DWIDTH 16 0
BBX 16 16 0 -2
BITMAP
3e3c
2020
3fbf
2424
4444
0404
1ffc
1004
1fe4
13fc
1004
1ffc
0808
3006
0000
0000
ENDCHAR
STARTCHAR ch-236
ENCODING 236
SWIDTH 1000 0
DWIDTH 16 0
BBX 16 16 0 -2
BITMAP
0404
7efe
4480
44fe
7c80
44fe
4480
7dff
4480
44a2
7c94
0088
28b4
44c3
0000
0000
ENDCHAR
STARTCHAR ch-237
ENCODING 237
SWIDTH 1000 0
DWIDTH 16 0
BBX 16 16 0 -2
BITMAP
0020
3e22
22fc
2224
3fff
2220
2244
3efe
2384
22fc
3e84
1484
22fc
4284
0000
0000
ENDCHAR
STARTCHAR ch-238
ENCODING 238
SWIDTH 1000 0
DWIDTH 16 0
BBX 16 16 0 -2
BITMAP
0080
0ff8
7fff
1ff8
0080
7fff
2222
0ff8
0808
0ff8
0ff8
0808
0ff8
1004
0000
0000
ENDCHAR
STARTCHAR ch-240
ENCODING 240
SWIDTH 1000 0
DWIDTH 16 0
BBX 16 16 0 -2
BITMAP
7c10
44fe
4410
7cfe
4410
45ff
7c44
4482
457d
7c44
007c
2844
247c
4644
0000
0000
ENDCHAR
STARTCHAR ch-241
ENCODING 241
SWIDTH 1000 0
DWIDTH 16 0
BBX 16 16 0 -2
BITMAP
7dff
4511
457d
7c10
44fe
4492
7cfe
4492
44fe
7c10
01ff
2810
2410
4610
0000
0000
ENDCHAR
STARTCHAR ch-243
ENCODING 243
SWIDTH 1000 0
DWIDTH 16 0
BBX 16 16 0 -2
BITMAP
7c48
444c
45fa
7c48
4448
47ff
7c08
45e8
4529
7d2a
012c
29e8
2415
4623
0000
0000
ENDCHAR
STARTCHAR ch-244
ENCODING 244
SWIDTH 1000 0
DWIDTH 16 0
BBX 16 16 0 -2
BITMAP
0810
0810
7f3e
0844
3e88
2b7e
2a42
3e7e
1c42
1a7e
2a42
487e
0824
08c3
0000
0000
ENDCHAR
STARTCHAR ch-245
ENCODING 245
SWIDTH 1000 0
DWIDTH 16 0
BBX 16 16 0 -2
BITMAP
7dff
4501
45ff
7d01
45ff
4400
7cfe
4482
44fe
7c82
00fe
2882
24fe
4682
0000
0000
ENDCHAR
STARTCHAR ch-248
ENCODING 248
SWIDTH 1000 0
DWIDTH 16 0
BBX 16 16 0 -2
BITMAP
0092
7c54
44fe
4410
45ff
7c44
44fe
4545
7c7c
4444
447c
4444
547c
4882
0000
0000
ENDCHAR
STARTCHAR ch-249
ENCODING 249
SWIDTH 1000 0
DWIDTH 16 0
BBX 16 16 0 -2
BITMAP
7c82
4444
4400
7dff
4428
4444
7c82
4501
44fe
7caa
00aa
20aa
28aa
45ff
0000
0000
ENDCHAR
STARTCHAR ch-250
ENCODING 250
SWIDTH 1000 0
DWIDTH 16 0
BBX 16 16 0 -2
BITMAP
0088
3e50
23fe
2250
3efe
2252
23ff
3e52
22fe
2250
3ed8
1557
2252
4150
0000
0000
ENDCHAR
STARTCHAR ch-251
ENCODING 251
SWIDTH 1000 0
DWIDTH 16 0
BBX 16 16 0 -2
BITMAP
0014
3e12
23ff
22fe
3e92
22fe
2292
3efe
2292
2204
3eff
1444
2254
4108
0000
0000
ENDCHAR
STARTCHAR ch-252
ENCODING 252
SWIDTH 1000 0
DWIDTH 16 0
BBX 16 16 0 -2
BITMAP
0044
7dff
4444
44fe
7c44
45ff
4410
7cfe
4492
44ff
7c92
29ff
4482
4484
0000
0000
ENDCHAR
STARTCHAR ch-253
ENCODING 253
SWIDTH 1000 0
DWIDTH 16 0
BBX 16 16 0 -2
BITMAP
0080
7fff
4411
5ffd
1ffc
0410
3ffe
0ff8
180c
2fea
0fe8
0808
0ff8
1004
0000
0000
ENDCHAR
STARTCHAR ch-254
ENCODING 254
SWIDTH 1000 0
DWIDTH 16 0
BBX 16 16 0 -2
BITMAP
0010
7dff
4810
48fe
4810
5dff
54fe
5482
54fe
5c82
48fe
4882
48fe
7d83
0000
0000
ENDCHAR
STARTCHAR ch-256
ENCODING 256
SWIDTH 1000 0
DWIDTH 16 0
BBX 16 16 0 -2
BITMAP
7f3c
5024
7e47
487c
7f28
5410
7f2e
0ff8
0808
0ff8
0ff8
0808
0ff8
180c
0000
0000
ENDCHAR
STARTCHAR ch-258
ENCODING 258
SWIDTH 1000 0
DWIDTH 16 0
BBX 16 16 0 -2
BITMAP
0040
7c82
45fe
4444
7ca9
45ff
4428
7c4c
4492
4525
7c48
1012
2804
44f8
0000
0000
ENDCHAR
STARTCHAR ch-260
ENCODING 260
SWIDTH 1000 0
DWIDTH 16 0
BBX 16 16 0 -2
BITMAP
0810
3e7c
7f14
1454
3e35
7f25
0847
0ff8
0808
0ff8
0ff8
0808
0ff8
180c
0000
0000
ENDCHAR
STARTCHAR ch-261
ENCODING 261
SWIDTH 1000 0
DWIDTH 16 0
BBX 16 16 0 -2
BITMAP
0820
7f3f
3e68
7f10
1228
6647
1ffc
1004
1ffc
1004
1ffc
1004
1ffc
2002
0000
0000
ENDCHAR
STARTCHAR ch-262
ENCODING 262
SWIDTH 1000 0
DWIDTH 16 0
BBX 16 16 0 -2
BITMAP
7c14
4414
44fe
7c10
4428
4444
7c00
44a5
44a5
7fff
0084
1144
2a2a
4411
0000
0000
ENDCHAR
STARTCHAR ch-263
ENCODING 263
SWIDTH 1000 0
DWIDTH 16 0
BBX 16 16 0 -2
BITMAP
0804
7f76
2205
14ff
0824
14b5
22a2
00f5
0ff8
0808
0fe8
0fe8
0ff8
380e
0000
0000
ENDCHAR
STARTCHAR ch-264
ENCODING 264
SWIDTH 1000 0
DWIDTH 16 0
BBX 16 16 0 -2
BITMAP
0082
7c44
4428
45ff
7d93
4555
4539
7dff
4400
44fe
7c82
28fe
4482
44fe
0000
0000
ENDCHAR
STARTCHAR ch-265
ENCODING 265
SWIDTH 1000 0
DWIDTH 16 0
BBX 16 16 0 -2
BITMAP
00fe
7c28
45ff
4529
7dff
44fe
4482
7cfe
4482
44fe
4410
7dff
2810
4410
0000
0000
ENDCHAR
STARTCHAR ch-266
ENCODING 266
SWIDTH 1000 0
DWIDTH 16 0
BBX 16 16 0 -2
BITMAP
1428
1f3e
2448
3f7e
1525
6747
0ff8
0808
0ff8
0808
0ff8
0808
0ff8
3006
0000
0000
ENDCHAR
STARTCHAR ch-269
ENCODING 269
SWIDTH 1000 0
DWIDTH 16 0
BBX 16 16 0 -2
BITMAP
0040
3e7e
2284
23ff
3ea2
22c9
22ff
3e9c
229c
2280
3ebe
1522
2222
443e
0000
0000
ENDCHAR
STARTCHAR ch-271
ENCODING 271
SWIDTH 1000 0
DWIDTH 16 0
BBX 16 16 0 -2
BITMAP
0080
7fff
1000
1ffc
0ff8
0808
0ff8
3dee
252a
3dea
25ee
3d2a
25eb
4e13
0000
0000
ENDCHAR
STARTCHAR ch-272
ENCODING 272
SWIDTH 1000 0
DWIDTH 16 0
BBX 16 16 0 -2
BITMAP
0010
7cfe
4412
45ff
4412
7cfe
4410
45ff
7caa
4529
44fe
7caa
28aa
45ff
0000
0000
ENDCHAR
STARTCHAR ch-275
ENCODING 275
SWIDTH 1000 0
DWIDTH 16 0
BBX 16 16 0 -2
BITMAP
0004
7805
49ff
4904
7d7c
4d54
4f54
797d
4f4d
4d7d
7d56
0554
317a
4a01
0000
0000
ENDCHAR
STARTCHAR ch-276
ENCODING 276
SWIDTH 1000 0
DWIDTH 16 0
BBX 16 16 0 -2
BITMAP
07f0
0410
07f0
07f0
0410
07f0
0808
3e3e
2222
3e3e
3e3e
2222
3e3e
4141
0000
0000
ENDCHAR
STARTCHAR ch-277
ENCODING 277
SWIDTH 1000 0
DWIDTH 16 0
BBX 16 16 0 -2
BITMAP
0008
277f
4508
453e
557f
7755
557f
553e
7522
573e
143e
2422
443e
0441
0000
0000
ENDCHAR
STARTCHAR ch-278
ENCODING 278
SWIDTH 1000 0
DWIDTH 16 0
BBX 16 16 0 -2
BITMAP
0010
7cfe
4410
44fe
7dff
4529
45ff
7cfe
44fe
4482
7cfe
1082
28fe
4583
0000
0000
ENDCHAR
STARTCHAR ch-279
ENCODING 279
SWIDTH 1000 0
DWIDTH 16 0
BBX 16 16 0 -2
BITMAP
3fff
2120
227c
26d4
2a7c
227c
227e
22aa
27fc
27f4
25fc
4404
07fc
0802
0000
0000
ENDCHAR
STARTCHAR ch-281
ENCODING 281
SWIDTH 1000 0
DWIDTH 16 0
BBX 16 16 0 -2
BITMAP
0e0e
7f7f
4949
7e7e
4e4e
5555
2727
0ff8
0808
0ff8
0ff8
0808
0ff8
1004
0000
0000
ENDCHAR
STARTCHAR ch-283
ENCODING 283
SWIDTH 1000 0
DWIDTH 16 0
BBX 16 16 0 -2
BITMAP
0820
7f3c
2268
1490
7f2c
00c3
3e7c
3efe
3e7c
0844
7f54
0854
082c
08c2
0000
0000
ENDCHAR
STARTCHAR ch-356
ENCODING 356
SWIDTH 1000 0
DWIDTH 16 0
BBX 16 16 0 -2
BITMAP
0080
0088
1ffc
0080
0082
7fff
0220
0a28
0a24
1223
2421
4420
08a0
1040
0000
0000
ENDCHAR
STARTCHAR ch-358
ENCODING 358
SWIDTH 1000 0
DWIDTH 16 0
BBX 16 16 0 -2
BITMAP
0410
0410
3f90
043f
0442
7fa2
0a22
2b14
2a94
4a88
0a14
1214
2223
4442
0000
0000
ENDCHAR
STARTCHAR ch-359
ENCODING 359
SWIDTH 1000 0
DWIDTH 16 0
BBX 16 16 0 -2
BITMAP
0404
047e
3f44
0444
0454
7fc8
0a7e
2ae2
2ad4
4a54
0a48
0a54
1263
2442
0000
0000
ENDCHAR
STARTCHAR ch-360
ENCODING 360
SWIDTH 1000 0
DWIDTH 16 0
BBX 16 16 0 -2
BITMAP
0808
0808
3e08
087f
0849
7f49
1449
147f
5508
5508
5508
1409
247f
0401
0000
0000
ENDCHAR
STARTCHAR ch-361
ENCODING 361
SWIDTH 1000 0
DWIDTH 16 0
BBX 16 16 0 -2
BITMAP
0408
0410
3f3e
0422
0404
7fbe
0a2a
0a2a
2aaa
2abe
2aa0
0a20
0a21
123f
0000
0000
ENDCHAR
STARTCHAR ch-363
ENCODING 363
SWIDTH 1000 0
DWIDTH 16 0
BBX 16 16 0 -2
BITMAP
0410
3f7e
0410
0410
7fff
1224
1224
3366
32a5
5225
1224
2244
2a54
4488
0000
0000
ENDCHAR
STARTCHAR ch-364
ENCODING 364
SWIDTH 1000 0
DWIDTH 16 0
BBX 16 16 0 -2
BITMAP
0810
081e
3e10
087e
0842
7f42
147e
5542
557e
5542
1442
247e
0424
0442
0000
0000
ENDCHAR
STARTCHAR ch-365
ENCODING 365
SWIDTH 1000 0
DWIDTH 16 0
BBX 16 16 0 -2
BITMAP
0410
0412
3f7e
0414
0418
7fff
2b7e
2ac2
2b42
4a7e
0a42
0a42
127e
2642
0000
0000
ENDCHAR
STARTCHAR ch-366
ENCODING 366
SWIDTH 1000 0
DWIDTH 16 0
BBX 16 16 0 -2
BITMAP
0800
08ef
3ea1
08aa
08a4
7ee0
148f
5689
55e9
5489
24e9
4486
0486
0489
0000
0000
ENDCHAR
STARTCHAR ch-367
ENCODING 367
SWIDTH 1000 0
DWIDTH 16 0
BBX 16 16 0 -2
BITMAP
1010
11ff
7c88
10be
7e8a
28ff
688a
6cbe
2a88
28be
28a2
48a2
093e
0a22
0000
0000
ENDCHAR
STARTCHAR ch-368
ENCODING 368
SWIDTH 1000 0
DWIDTH 16 0
BBX 16 16 0 -2
BITMAP
0080
0088
1ffc
0080
0082
7fff
0080
0888
08fc
0880
0880
1480
2280
41ff
0000
0000
ENDCHAR
STARTCHAR ch-370
ENCODING 370
SWIDTH 1000 0
DWIDTH 16 0
BBX 16 16 0 -2
BITMAP
0810
0810
3e7f
0811
0811
7f11
0811
2811
2f21
2841
288a
3804
4400
03ff
0000
0000
ENDCHAR
STARTCHAR ch-371
ENCODING 371
SWIDTH 1000 0
DWIDTH 16 0
BBX 16 16 0 -2
BITMAP
0402
0402
3fa2
0422
0422
7fe2
0422
0422
1422
17be
1402
2c02
2400
43ff
0000
0000
ENDCHAR
STARTCHAR ch-372
ENCODING 372
SWIDTH 1000 0
DWIDTH 16 0
BBX 16 16 0 -2
BITMAP
0410
0410
3f90
0410
0410
7fd8
0416
1412
1790
1410
1410
1410
2c00
43ff
0000
0000
ENDCHAR
STARTCHAR ch-374
ENCODING 374
SWIDTH 1000 0
DWIDTH 16 0
BBX 16 16 0 -2
BITMAP
0400
0404
04fe
3f10
0410
7f92
04ff
1410
1790
1410
1410
1c10
2400
43ff
0000
0000
ENDCHAR
STARTCHAR ch-375
ENCODING 375
SWIDTH 1000 0
DWIDTH 16 0
BBX 16 16 0 -2
BITMAP
0400
0404
047e
3f44
0444
0444
7f7c
0444
1440
1740
1442
343e
2c00
47ff
0000
0000
ENDCHAR
STARTCHAR ch-376
ENCODING 376
SWIDTH 1000 0
DWIDTH 16 0
BBX 16 16 0 -2
BITMAP
0808
0808
3e08
0849
0849
7f49
0849
2849
2f49
287f
3841
2800
4400
03ff
0000
0000
ENDCHAR
STARTCHAR ch-377
ENCODING 377
SWIDTH 1000 0
DWIDTH 16 0
BBX 16 16 0 -2
BITMAP
0820
0820
3e7f
0881
0801
0839
7f01
0801
287d
2e01
2802
381c
2800
47ff
0000
0000
ENDCHAR
STARTCHAR ch-379
ENCODING 379
SWIDTH 1000 0
DWIDTH 16 0
BBX 16 16 0 -2
BITMAP
0810
0810
3e54
0852
0891
7f10
0812
2812
2e04
2808
2810
38e0
2800
47ff
0000
0000
ENDCHAR
STARTCHAR ch-381
ENCODING 381
SWIDTH 1000 0
DWIDTH 16 0
BBX 16 16 0 -2
BITMAP
0810
0810
3e7e
0812
0812
7f12
0812
08ff
2810
2e28
2844
2983
3800
4fff
0000
0000
ENDCHAR
STARTCHAR ch-384
ENCODING 384
SWIDTH 1000 0
DWIDTH 16 0
BBX 16 16 0 -2
BITMAP
0810
0810
3efe
0890
0890
7eff
0811
0831
2e51
2895
2912
3810
2400
43fe
0000
0000
ENDCHAR
STARTCHAR ch-385
ENCODING 385
SWIDTH 1000 0
DWIDTH 16 0
BBX 16 16 0 -2
BITMAP
0820
0850
3e88
0894
0937
7e42
0890
0830
2e44
288c
2810
2820
3040
4fff
0000
0000
ENDCHAR
STARTCHAR ch-388
ENCODING 388
SWIDTH 1000 0
DWIDTH 16 0
BBX 16 16 0 -2
BITMAP
0400
0400
3fbe
0422
0422
7fbe
0422
1422
17be
1422
1422
2c7f
2400
43ff
0000
0000
ENDCHAR
STARTCHAR ch-389
ENCODING 389
SWIDTH 1000 0
DWIDTH 16 0
BBX 16 16 0 -2
BITMAP
08ff
0822
3e22
0822
082a
7f44
0800
287e
2f42
2842
2842
387e
2400
43ff
0000
0000
ENDCHAR
STARTCHAR ch-393
ENCODING 393
SWIDTH 1000 0
DWIDTH 16 0
BBX 16 16 0 -2
BITMAP
0808
0808
0849
3e49
0849
087f
7f08
0808
2849
2e49
2849
387f
2400
43ff
0000
0000
ENDCHAR
STARTCHAR ch-394
ENCODING 394
SWIDTH 1000 0
DWIDTH 16 0
BBX 16 16 0 -2
BITMAP
0814
0812
3eff
0890
0894
7f94
08b4
28d8
2e90
282a
2846
3882
2600
41ff
0000
0000
ENDCHAR
STARTCHAR ch-396
ENCODING 396
SWIDTH 1000 0
DWIDTH 16 0
BBX 16 16 0 -2
BITMAP
0810
0810
09ff
3e10
0810
08fe
7f00
08fe
0882
2f82
28fe
3882
2800
47ff
0000
0000
ENDCHAR
STARTCHAR ch-397
ENCODING 397
SWIDTH 1000 0
DWIDTH 16 0
BBX 16 16 0 -2
BITMAP
0810
083e
0844
3ea8
0810
08e8
7f1f
0821
2852
2f14
2808
38f0
2800
47ff
0000
0000
ENDCHAR
STARTCHAR ch-398
ENCODING 398
SWIDTH 1000 0
DWIDTH 16 0
BBX 16 16 0 -2
BITMAP
0810
0890
0890
3efe
0910
0810
7eff
0810
2854
2e92
3911
2810
2400
43ff
0000
0000
ENDCHAR
STARTCHAR ch-399
ENCODING 399
SWIDTH 1000 0
DWIDTH 16 0
BBX 16 16 0 -2
BITMAP
0802
08fc
0810
3e10
09ff
0810
7f10
08fe
2e82
2882
28fe
3882
2800
47ff
0000
0000
ENDCHAR
STARTCHAR ch-400
ENCODING 400
SWIDTH 1000 0
DWIDTH 16 0
BBX 16 16 0 -2
BITMAP
0800
09ef
0821
3e29
08a9
0865
7f21
0863
09ad
2e21
2821
38c6
2800
47ff
0000
0000
ENDCHAR
STARTCHAR ch-401
ENCODING 401
SWIDTH 1000 0
DWIDTH 16 0
BBX 16 16 0 -2
BITMAP
0810
3e10
09df
0821
7f0a
0808
0808
29c8
2e14
2812
3821
2841
2400
43ff
0000
0000
ENDCHAR
STARTCHAR ch-402
ENCODING 402
SWIDTH 1000 0
DWIDTH 16 0
BBX 16 16 0 -2
BITMAP
0800
0828
0828
3eaa
08aa
086c
7f28
086c
28aa
2e28
2849
388f
2800
47ff
0000
0000
ENDCHAR
STARTCHAR ch-403
ENCODING 403
SWIDTH 1000 0
DWIDTH 16 0
BBX 16 16 0 -2
BITMAP
0800
087c
0844
3e44
0845
0887
7f10
08ff
2e10
2854
2892
3911
2830
47ff
0000
0000
ENDCHAR
STARTCHAR ch-404
ENCODING 404
SWIDTH 1000 0
DWIDTH 16 0
BBX 16 16 0 -2
BITMAP
0802
09f2
3e82
0882
08ea
7eaa
08aa
286a
2e4a
2882
390a
2804
2400
43ff
0000
0000
ENDCHAR
STARTCHAR ch-405
ENCODING 405
SWIDTH 1000 0
DWIDTH 16 0
BBX 16 16 0 -2
BITMAP
087f
0841
3e7f
0841
087f
7f00
087f
2808
2f7f
2808
3808
2808
4400
03ff
0000
0000
ENDCHAR
STARTCHAR ch-406
ENCODING 406
SWIDTH 1000 0
DWIDTH 16 0
BBX 16 16 0 -2
BITMAP
0810
0854
3e54
08d6
0939
7f10
0810
08fe
2e10
2810
39ff
2800
4400
03ff
0000
0000
ENDCHAR
STARTCHAR ch-409
ENCODING 409
SWIDTH 1000 0
DWIDTH 16 0
BBX 16 16 0 -2
BITMAP
0810
0891
3e52
0834
08fe
7e82
08fe
0882
2efe
2882
288a
3904
2800
47ff
0000
0000
ENDCHAR
STARTCHAR ch-411
ENCODING 411
SWIDTH 1000 0
DWIDTH 16 0
BBX 16 16 0 -2
BITMAP
0838
0844
3e82
087c
0810
7f10
087c
2810
2e54
2838
2810
38fe
2800
47ff
0000
0000
ENDCHAR
STARTCHAR ch-412
ENCODING 412
SWIDTH 1000 0
DWIDTH 16 0
BBX 16 16 0 -2
BITMAP
0840
0840
3eff
0893
0855
7f11
087d
0811
2e55
2893
2811
3806
2800
47ff
0000
0000
ENDCHAR
STARTCHAR ch-415
ENCODING 415
SWIDTH 1000 0
DWIDTH 16 0
BBX 16 16 0 -2
BITMAP
0820
0924
3ea8
0820
09fe
7f02
097a
294a
2f4a
297a
3902
2904
4400
03ff
0000
0000
ENDCHAR
STARTCHAR ch-416
ENCODING 416
SWIDTH 1000 0
DWIDTH 16 0
BBX 16 16 0 -2
BITMAP
0810
081e
3e10
08fe
0882
7ffe
0882
28fe
2e10
29ff
3810
2810
2800
47ff
0000
0000
ENDCHAR
STARTCHAR ch-417
ENCODING 417
SWIDTH 1000 0
DWIDTH 16 0
BBX 16 16 0 -2
BITMAP
0824
0844
3eff
0944
0844
7f7f
0844
0844
2e7f
2844
2844
387f
2840
47ff
0000
0000
ENDCHAR
STARTCHAR ch-419
ENCODING 419
SWIDTH 1000 0
DWIDTH 16 0
BBX 16 16 0 -2
BITMAP
0800
0bf0
0920
3f3e
09e2
7f2a
09ea
2924
2f2a
2929
2bf1
3820
4820
07ff
0000
0000
ENDCHAR
STARTCHAR ch-421
ENCODING 421
SWIDTH 1000 0
DWIDTH 16 0
BBX 16 16 0 -2
BITMAP
0844
0828
3fff
0828
09ff
7f29
0929
29c7
2901
2f7d
2901
39ff
2800
47ff
0000
0000
ENDCHAR
STARTCHAR ch-423
ENCODING 423
SWIDTH 1000 0
DWIDTH 16 0
BBX 16 16 0 -2
BITMAP
087e
0842
3e7e
0842
087e
7f00
08ff
0808
2e4e
2848
2848
38bf
2800
47ff
0000
0000
ENDCHAR
STARTCHAR ch-424
ENCODING 424
SWIDTH 1000 0
DWIDTH 16 0
BBX 16 16 0 -2
BITMAP
0840
087f
3ea5
09a5
08fd
7f21
084e
087f
2ea5
29fd
2821
304e
4800
07ff
0000
0000
ENDCHAR
STARTCHAR ch-426
ENCODING 426
SWIDTH 1000 0
DWIDTH 16 0
BBX 16 16 0 -2
BITMAP
0844
09ff
3e44
087c
09ff
7f00
08fe
0892
0efe
2892
28fe
2983
2800
47ff
0000
0000
ENDCHAR
STARTCHAR ch-427
ENCODING 427
SWIDTH 1000 0
DWIDTH 16 0
BBX 16 16 0 -2
BITMAP
087c
0810
3fff
0844
08ba
7f29
0838
0800
2efe
28ba
28aa
28ba
3886
4fff
0000
0000
ENDCHAR
STARTCHAR ch-428
ENCODING 428
SWIDTH 1000 0
DWIDTH 16 0
BBX 16 16 0 -2
BITMAP
0810
08fe
3e10
09ff
0844
7fef
0844
09ef
0fff
2848
2889
390f
2800
47ff
0000
0000
ENDCHAR
STARTCHAR ch-429
ENCODING 429
SWIDTH 1000 0
DWIDTH 16 0
BBX 16 16 0 -2
BITMAP
0848
0888
3fff
0888
08fe
7f88
08fe
0888
2eff
2800
292a
2929
3800
4fff
0000
0000
ENDCHAR
STARTCHAR ch-430
ENCODING 430
SWIDTH 1000 0
DWIDTH 16 0
BBX 16 16 0 -2
BITMAP
08fe
0882
3efe
0800
09ef
7f29
09ff
0810
2fff
2854
2892
3911
2800
47ff
0000
0000
ENDCHAR
STARTCHAR ch-431
ENCODING 431
SWIDTH 1000 0
DWIDTH 16 0
BBX 16 16 0 -2
BITMAP
09ef
08a5
3e63
08a5
0848
7fff
0988
08ff
2e88
28ff
2888
38ff
2800
47ff
0000
0000
ENDCHAR
STARTCHAR ch-434
ENCODING 434
SWIDTH 1000 0
DWIDTH 16 0
BBX 16 16 0 -2
BITMAP
094a
09ef
3e42
09ef
094a
0863
7ffe
0882
08fe
2efe
2882
38fe
2901
47ff
0000
0000
ENDCHAR
STARTCHAR ch-435
ENCODING 435
SWIDTH 1000 0
DWIDTH 16 0
BBX 16 16 0 -2
BITMAP
0008
0ffc
0808
0808
0808
0ff8
0888
0080
0880
08fc
0880
1480
2280
41ff
0000
0000
ENDCHAR
STARTCHAR ch-436
ENCODING 436
SWIDTH 1000 0
DWIDTH 16 0
BBX 16 16 0 -2
BITMAP
0210
3f18
2250
2250
3e50
0850
2e50
2850
2890
2888
2f08
7104
2203
0400
0000
0000
ENDCHAR
STARTCHAR ch-437
ENCODING 437
SWIDTH 1000 0
DWIDTH 16 0
BBX 16 16 0 -2
BITMAP
0040
3e40
2242
227f
3e82
2902
0842
2822
2e22
2802
2f02
7822
2014
0008
0000
0000
ENDCHAR
STARTCHAR ch-438
ENCODING 438
SWIDTH 1000 0
DWIDTH 16 0
BBX 16 16 0 -2
BITMAP
7cfe
4410
4410
4410
7c10
55ff
1010
1010
5e10
5010
5010
5210
7c50
0020
0000
0000
ENDCHAR
STARTCHAR ch-439
ENCODING 439
SWIDTH 1000 0
DWIDTH 16 0
BBX 16 16 0 -2
BITMAP
7c40
4442
44ff
4500
7c00
107c
1004
1c08
5010
5020
5040
5481
7901
00ff
0000
0000
ENDCHAR
STARTCHAR ch-441
ENCODING 441
SWIDTH 1000 0
DWIDTH 16 0
BBX 16 16 0 -2
BITMAP
0010
3e10
22fe
2212
2212
3e12
0812
09ff
0810
2e10
2828
2a44
2c82
7901
0000
0000
ENDCHAR
STARTCHAR ch-442
ENCODING 442
SWIDTH 1000 0
DWIDTH 16 0
BBX 16 16 0 -2
BITMAP
0210
3f10
22fe
2210
3e10
2812
09ff
2810
2e28
2848
2e44
7884
2103
0202
0000
0000
ENDCHAR
STARTCHAR ch-444
ENCODING 444
SWIDTH 1000 0
DWIDTH 16 0
BBX 16 16 0 -2
BITMAP
3eff
2224
2224
2224
3e24
0824
08ff
2824
2e24
2824
2824
2844
7e84
0004
0000
0000
ENDCHAR
STARTCHAR ch-446
ENCODING 446
SWIDTH 1000 0
DWIDTH 16 0
BBX 16 16 0 -2
BITMAP
0210
3f10
2210
2210
3e90
089e
0890
2890
2e90
2890
2890
2e90
7892
23ff
0000
0000
ENDCHAR
STARTCHAR ch-447
ENCODING 447
SWIDTH 1000 0
DWIDTH 16 0
BBX 16 16 0 -2
BITMAP
3efc
2284
2288
2290
3ea0
08be
0882
2882
2ea2
2894
2a88
2c94
7922
0241
0000
0000
ENDCHAR
STARTCHAR ch-449
ENCODING 449
SWIDTH 1000 0
DWIDTH 16 0
BBX 16 16 0 -2
BITMAP
3efe
2292
2292
2292
3e92
0892
08fe
0882
2e80
2880
2880
2a81
2c81
78ff
0000
0000
ENDCHAR
STARTCHAR ch-450
ENCODING 450
SWIDTH 1000 0
DWIDTH 16 0
BBX 16 16 0 -2
BITMAP
0010
3e10
22fe
2210
2210
3e10
087c
0844
0e44
2828
2810
2a28
2c44
7983
0000
0000
ENDCHAR
STARTCHAR ch-453
ENCODING 453
SWIDTH 1000 0
DWIDTH 16 0
BBX 16 16 0 -2
BITMAP
0001
7dfe
4440
4440
7c40
107f
1048
1c4c
104a
5049
5488
5908
7008
0008
0000
0000
ENDCHAR
STARTCHAR ch-454
ENCODING 454
SWIDTH 1000 0
DWIDTH 16 0
BBX 16 16 0 -2
BITMAP
0220
3f20
2240
2242
3eff
2a01
0800
28fe
2e82
2882
2882
2e82
78fe
0082
0000
0000
ENDCHAR
STARTCHAR ch-455
ENCODING 455
SWIDTH 1000 0
DWIDTH 16 0
BBX 16 16 0 -2
BITMAP
7c92
4492
4492
4492
7dff
1092
1092
1092
5c92
509e
5080
5080
50ff
7c80
0000
0000
ENDCHAR
STARTCHAR ch-456
ENCODING 456
SWIDTH 1000 0
DWIDTH 16 0
BBX 16 16 0 -2
BITMAP
0010
7c28
4444
4482
4509
7c10
1020
1048
5c10
5022
5044
5008
5010
7de0
0000
0000
ENDCHAR
STARTCHAR ch-459
ENCODING 459
SWIDTH 1000 0
DWIDTH 16 0
BBX 16 16 0 -2
BITMAP
7c22
4421
4420
45ff
7c20
5420
1044
1084
1d44
5228
5010
5028
5044
7d83
0000
0000
ENDCHAR
STARTCHAR ch-460
ENCODING 460
SWIDTH 1000 0
DWIDTH 16 0
BBX 16 16 0 -2
BITMAP
0010
3e10
2290
22fe
3e90
0910
0812
09ff
2e10
2828
2f44
7846
2083
0102
0000
0000
ENDCHAR
STARTCHAR ch-461
ENCODING 461
SWIDTH 1000 0
DWIDTH 16 0
BBX 16 16 0 -2
BITMAP
0010
7c10
4410
45ff
7c10
1010
1010
10fe
1c82
5082
5082
5082
50fe
7c82
0000
0000
ENDCHAR
STARTCHAR ch-462
ENCODING 462
SWIDTH 1000 0
DWIDTH 16 0
BBX 16 16 0 -2
BITMAP
0220
3f10
22ff
2281
3f02
0840
2840
284c
2e50
2860
2940
2e41
7841
203f
0000
0000
ENDCHAR
STARTCHAR ch-463
ENCODING 463
SWIDTH 1000 0
DWIDTH 16 0
BBX 16 16 0 -2
BITMAP
7880
4880
4880
4bef
78a9
10a9
10a9
10a9
50a9
5ca9
50a9
5129
52af
7c40
0000
0000
ENDCHAR
STARTCHAR ch-464
ENCODING 464
SWIDTH 1000 0
DWIDTH 16 0
BBX 16 16 0 -2
BITMAP
0048
7c48
4448
4448
7c48
107f
1048
1148
5148
5d48
5148
5149
5149
7dff
0000
0000
ENDCHAR
STARTCHAR ch-465
ENCODING 465
SWIDTH 1000 0
DWIDTH 16 0
BBX 16 16 0 -2
BITMAP
0240
3f42
227f
2282
2202
3ef2
0892
2892
2ef2
2882
288c
2e81
7081
207f
0000
0000
ENDCHAR
STARTCHAR ch-467
ENCODING 467
SWIDTH 1000 0
DWIDTH 16 0
BBX 16 16 0 -2
BITMAP
0020
7c10
4408
45ff
7c10
1010
1010
10fe
1c10
5010
5010
5010
5010
7dff
0000
0000
ENDCHAR
STARTCHAR ch-469
ENCODING 469
SWIDTH 1000 0
DWIDTH 16 0
BBX 16 16 0 -2
BITMAP
0020
7c20
4420
443e
7c20
1020
1020
11fe
1d02
5102
5502
5902
71fe
0102
0000
0000
ENDCHAR
STARTCHAR ch-470
ENCODING 470
SWIDTH 1000 0
DWIDTH 16 0
BBX 16 16 0 -2
BITMAP
0002
3eff
2220
2220
3e40
2842
087f
28c2
2ec2
2942
2e42
7842
207e
0042
0000
0000
ENDCHAR
STARTCHAR ch-471
ENCODING 471
SWIDTH 1000 0
DWIDTH 16 0
BBX 16 16 0 -2
BITMAP
0044
7c44
4444
4484
7dff
1284
1084
10a4
5c94
5094
5084
5084
7c94
0088
0000
0000
ENDCHAR
STARTCHAR ch-472
ENCODING 472
SWIDTH 1000 0
DWIDTH 16 0
BBX 16 16 0 -2
BITMAP
0010
7c10
4492
4454
7c10
10fe
1010
1010
5dff
5010
5010
5010
7c10
0010
0000
0000
ENDCHAR
STARTCHAR ch-473
ENCODING 473
SWIDTH 1000 0
DWIDTH 16 0
BBX 16 16 0 -2
BITMAP
7c7e
4442
4442
4442
7c7e
1042
1042
1042
5c7e
5042
5042
5042
5042
7eff
0000
0000
ENDCHAR
STARTCHAR ch-474
ENCODING 474
SWIDTH 1000 0
DWIDTH 16 0
BBX 16 16 0 -2
BITMAP
3efe
22aa
22aa
22aa
3eaa
2aaa
09ff
28aa
2eaa
28aa
2eaa
796a
2112
0226
0000
0000
ENDCHAR
STARTCHAR ch-475
ENCODING 475
SWIDTH 1000 0
DWIDTH 16 0
BBX 16 16 0 -2
BITMAP
3f10
2210
22ff
2291
3e92
2a90
08fe
28c4
2ea8
2890
2ea8
7924
2147
0282
0000
0000
ENDCHAR
STARTCHAR ch-476
ENCODING 476
SWIDTH 1000 0
DWIDTH 16 0
BBX 16 16 0 -2
BITMAP
7cff
4481
4481
4481
7cff
5480
10a0
10a0
1ca0
50be
50a0
54a1
5921
723f
0000
0000
ENDCHAR
STARTCHAR ch-477
ENCODING 477
SWIDTH 1000 0
DWIDTH 16 0
BBX 16 16 0 -2
BITMAP
0004
3efe
2280
2280
3e80
08fe
0882
2882
2e82
28fe
2880
2e80
7882
20ff
0000
0000
ENDCHAR
STARTCHAR ch-479
ENCODING 479
SWIDTH 1000 0
DWIDTH 16 0
BBX 16 16 0 -2
BITMAP
0004
3efe
2284
22fc
3e84
08fc
28a2
2ea4
2898
2890
2888
2ea7
70c2
2080
0000
0000
ENDCHAR
STARTCHAR ch-480
ENCODING 480
SWIDTH 1000 0
DWIDTH 16 0
BBX 16 16 0 -2
BITMAP
7c10
45ff
4410
44fe
7c12
11fe
1110
11ff
5c11
5011
5011
502b
5044
7d83
0000
0000
ENDCHAR
STARTCHAR ch-481
ENCODING 481
SWIDTH 1000 0
DWIDTH 16 0
BBX 16 16 0 -2
BITMAP
7c20
4410
47ff
4448
7c48
5448
114a
1d49
5249
5048
5048
5448
7888
0118
0000
0000
ENDCHAR
STARTCHAR ch-482
ENCODING 482
SWIDTH 1000 0
DWIDTH 16 0
BBX 16 16 0 -2
BITMAP
0020
7c7e
4444
44a8
4510
7c20
11c8
101f
5021
5c52
5094
5008
5010
7ce0
0000
0000
ENDCHAR
STARTCHAR ch-483
ENCODING 483
SWIDTH 1000 0
DWIDTH 16 0
BBX 16 16 0 -2
BITMAP
0010
3e10
2290
22fe
2290
3f10
0810
09ff
2e48
2848
2848
2e89
7909
0207
0000
0000
ENDCHAR
STARTCHAR ch-484
ENCODING 484
SWIDTH 1000 0
DWIDTH 16 0
BBX 16 16 0 -2
BITMAP
0020
3e10
23ff
2200
3e44
2883
0945
2844
2e28
2810
2e28
7844
2087
0102
0000
0000
ENDCHAR
STARTCHAR ch-486
ENCODING 486
SWIDTH 1000 0
DWIDTH 16 0
BBX 16 16 0 -2
BITMAP
0008
7e28
4228
423e
7e48
4a88
0808
28ff
2e08
281c
282a
2e49
7088
0008
0000
0000
ENDCHAR
STARTCHAR ch-487
ENCODING 487
SWIDTH 1000 0
DWIDTH 16 0
BBX 16 16 0 -2
BITMAP
0010
7c28
4444
4482
7d7d
1010
1010
1010
5cfe
5010
5010
5010
5010
7dff
0000
0000
ENDCHAR
STARTCHAR ch-488
ENCODING 488
SWIDTH 1000 0
DWIDTH 16 0
BBX 16 16 0 -2
BITMAP
3e20
2220
23ff
3e88
0907
0afa
2e00
29fe
2840
28fc
2e04
7804
2048
0030
0000
0000
ENDCHAR
STARTCHAR ch-489
ENCODING 489
SWIDTH 1000 0
DWIDTH 16 0
BBX 16 16 0 -2
BITMAP
0010
7c10
45ff
4511
7dff
1111
11ff
1010
5011
5e12
5014
5009
5015
7ce3
0000
0000
ENDCHAR
STARTCHAR ch-490
ENCODING 490
SWIDTH 1000 0
DWIDTH 16 0
BBX 16 16 0 -2
BITMAP
0040
3e48
227c
2288
2310
3eff
0880
28bc
2ea4
28a4
2ea8
78a1
2121
061f
0000
0000
ENDCHAR
STARTCHAR ch-491
ENCODING 491
SWIDTH 1000 0
DWIDTH 16 0
BBX 16 16 0 -2
BITMAP
3f7e
0444
0464
0755
3883
0108
0ffc
0808
0ff8
0480
04fc
0680
1980
60ff
0000
0000
ENDCHAR
STARTCHAR ch-492
ENCODING 492
SWIDTH 1000 0
DWIDTH 16 0
BBX 16 16 0 -2
BITMAP
0010
3e10
22fe
2210
3e10
09ff
0800
0810
2e10
28fe
2810
2810
2e10
79ff
0000
0000
ENDCHAR
STARTCHAR ch-494
ENCODING 494
SWIDTH 1000 0
DWIDTH 16 0
BBX 16 16 0 -2
BITMAP
7dff
4410
4410
4420
7c44
10fe
1010
5010
5c10
50fe
5010
5010
5010
7dff
0000
0000
ENDCHAR
STARTCHAR ch-495
ENCODING 495
SWIDTH 1000 0
DWIDTH 16 0
BBX 16 16 0 -2
BITMAP
0020
3e20
227e
22c4
2328
3e38
2844
0983
2e02
28fc
2884
2e84
70fc
0084
0000
0000
ENDCHAR
STARTCHAR ch-496
ENCODING 496
SWIDTH 1000 0
DWIDTH 16 0
BBX 16 16 0 -2
BITMAP
0044
7c44
4428
44fe
7c44
1044
1044
11ff
5c44
5044
5044
5044
5084
7d04
0000
0000
ENDCHAR
STARTCHAR ch-497
ENCODING 497
SWIDTH 1000 0
DWIDTH 16 0
BBX 16 16 0 -2
BITMAP
0010
7c10
44fe
4410
7c10
11ff
1004
1004
51ff
5c84
5044
5024
5004
7c18
0000
0000
ENDCHAR
STARTCHAR ch-498
ENCODING 498
SWIDTH 1000 0
DWIDTH 16 0
BBX 16 16 0 -2
BITMAP
0010
7c28
4444
4482
7d01
107c
1000
1000
5cfe
5082
5082
5082
50fe
7c82
0000
0000
ENDCHAR
STARTCHAR ch-499
ENCODING 499
SWIDTH 1000 0
DWIDTH 16 0
BBX 16 16 0 -2
BITMAP
0050
3e50
2250
2352
3ed6
08d8
0850
2cd8
2954
2a54
2e50
7891
2111
060f
0000
0000
ENDCHAR
STARTCHAR ch-500
ENCODING 500
SWIDTH 1000 0
DWIDTH 16 0
BBX 16 16 0 -2
BITMAP
7dff
4428
4428
4428
7dff
1129
1129
1129
5d29
514f
5101
5101
51ff
7d01
0000
0000
ENDCHAR
STARTCHAR ch-506
ENCODING 506
SWIDTH 1000 0
DWIDTH 16 0
BBX 16 16 0 -2
BITMAP
3e3c
2224
2224
2224
3e25
2ac3
0808
28ff
2c18
282c
284a
2e89
7808
2008
0000
0000
ENDCHAR
STARTCHAR ch-508
ENCODING 508
SWIDTH 1000 0
DWIDTH 16 0
BBX 16 16 0 -2
BITMAP
7dfe
4502
4502
45fe
7d00
11ff
1101
1d79
1149
5149
5179
5d01
7205
0002
0000
0000
ENDCHAR
STARTCHAR ch-509
ENCODING 509
SWIDTH 1000 0
DWIDTH 16 0
BBX 16 16 0 -2
BITMAP
3efc
2204
2204
3efc
0880
0882
0882
287e
2e00
2800
2952
2f51
7945
223c
0000
0000
ENDCHAR
STARTCHAR ch-510
ENCODING 510
SWIDTH 1000 0
DWIDTH 16 0
BBX 16 16 0 -2
BITMAP
0410
0420
083f
72c4
1228
1210
106e
0ff8
0808
0ff8
1080
18fc
2480
43ff
0000
0000
ENDCHAR
STARTCHAR ch-511
ENCODING 511
SWIDTH 1000 0
DWIDTH 16 0
BBX 16 16 0 -2
BITMAP
7c10
4410
44fe
4410
7c10
11ff
1010
1c10
509e
5090
5090
5090
5550
7a3f
0000
0000
ENDCHAR
ENDFONT
